<svg width="36" height="36" viewBox="0 0 36 36" fill="none" xmlns="http://www.w3.org/2000/svg">
<g clip-path="url(#clip0_167_196)">
<path fill-rule="evenodd" clip-rule="evenodd" d="M15 4.5C16.0005 4.5 16.9995 4.8795 18 5.64C19.0005 4.8795 19.9995 4.5 21 4.5H30C30.7956 4.5 31.5587 4.81607 32.1213 5.37868C32.6839 5.94129 33 6.70435 33 7.5V27C33 27.7956 32.6839 28.5587 32.1213 29.1213C31.5587 29.6839 30.7956 30 30 30H19.5C19.5 30.828 18.825 31.5 18 31.5C17.175 31.5 16.5 30.825 16.5 30H6C5.20435 30 4.44129 29.6839 3.87868 29.1213C3.31607 28.5587 3 27.7956 3 27V7.5C3 6.70435 3.31607 5.94129 3.87868 5.37868C4.44129 4.81607 5.20435 4.5 6 4.5H15ZM15 7.5H6V27H16.5V9C16.5 8.175 15.825 7.5 15 7.5ZM30 7.5H21C20.175 7.5 19.5 8.175 19.5 9V27H30V7.5Z" fill="#92704C"/>
</g>
<defs>
<clipPath id="clip0_167_196">
<rect width="36" height="36" fill="white"/>
</clipPath>
</defs>
</svg>
