<svg width="36" height="36" viewBox="0 0 36 36" fill="none" xmlns="http://www.w3.org/2000/svg">
<g clip-path="url(#clip0_167_200)">
<path d="M27 15C28.1548 14.9999 29.285 15.3331 30.2551 15.9595C31.2252 16.5859 31.9939 17.479 32.469 18.5315C32.9441 19.5839 33.1054 20.7512 32.9335 21.8931C32.7616 23.035 32.2639 24.103 31.5 24.969V31.257C31.5 31.5383 31.4282 31.8149 31.2912 32.0606C31.1543 32.3063 30.9568 32.5129 30.7175 32.6608C30.4782 32.8087 30.2051 32.8929 29.9241 32.9056C29.6431 32.9182 29.3636 32.8588 29.112 32.733L27 31.677L24.888 32.733C24.6364 32.8588 24.3569 32.9182 24.0759 32.9056C23.7949 32.8929 23.5218 32.8087 23.2825 32.6608C23.0432 32.5129 22.8457 32.3063 22.7088 32.0606C22.5718 31.8149 22.5 31.5383 22.5 31.257V24.969C21.7361 24.103 21.2384 23.035 21.0665 21.8931C20.8946 20.7512 21.0559 19.5839 21.531 18.5315C22.0061 17.479 22.7748 16.5859 23.7449 15.9595C24.715 15.3331 25.8452 14.9999 27 15ZM30 6C30.7956 6 31.5587 6.31607 32.1213 6.87868C32.6839 7.44129 33 8.20435 33 9V12C33 12.3978 32.842 12.7794 32.5607 13.0607C32.2794 13.342 31.8978 13.5 31.5 13.5C31.1022 13.5 30.7206 13.342 30.4393 13.0607C30.158 12.7794 30 12.3978 30 12V9H6V27H18C18.3978 27 18.7794 27.158 19.0607 27.4393C19.342 27.7206 19.5 28.1022 19.5 28.5C19.5 28.8978 19.342 29.2794 19.0607 29.5607C18.7794 29.842 18.3978 30 18 30H6C5.20435 30 4.44129 29.6839 3.87868 29.1213C3.31607 28.5587 3 27.7957 3 27V9C3 8.20435 3.31607 7.44129 3.87868 6.87868C4.44129 6.31607 5.20435 6 6 6H30ZM28.5 26.811C27.5161 27.0644 26.4839 27.0644 25.5 26.811V29.073L26.3295 28.659C26.5377 28.555 26.7673 28.5008 27 28.5008C27.2327 28.5008 27.4623 28.555 27.6705 28.659L28.5 29.073V26.811ZM27 18C26.2044 18 25.4413 18.3161 24.8787 18.8787C24.3161 19.4413 24 20.2044 24 21C24 21.7957 24.3161 22.5587 24.8787 23.1213C25.4413 23.6839 26.2044 24 27 24C27.7956 24 28.5587 23.6839 29.1213 23.1213C29.6839 22.5587 30 21.7957 30 21C30 20.2044 29.6839 19.4413 29.1213 18.8787C28.5587 18.3161 27.7956 18 27 18ZM13.5 19.5C13.8823 19.5004 14.25 19.6468 14.5281 19.9093C14.8061 20.1717 14.9734 20.5304 14.9958 20.9121C15.0182 21.2938 14.894 21.6696 14.6486 21.9627C14.4032 22.2559 14.0551 22.4443 13.6755 22.4895L13.5 22.5H10.5C10.1177 22.4996 9.74995 22.3532 9.47195 22.0907C9.19394 21.8283 9.02665 21.4696 9.00424 21.0879C8.98184 20.7062 9.10601 20.3304 9.3514 20.0373C9.59678 19.7441 9.94486 19.5557 10.3245 19.5105L10.5 19.5H13.5ZM19.5 13.5C19.8978 13.5 20.2794 13.658 20.5607 13.9393C20.842 14.2206 21 14.6022 21 15C21 15.3978 20.842 15.7794 20.5607 16.0607C20.2794 16.342 19.8978 16.5 19.5 16.5H10.5C10.1022 16.5 9.72064 16.342 9.43934 16.0607C9.15804 15.7794 9 15.3978 9 15C9 14.6022 9.15804 14.2206 9.43934 13.9393C9.72064 13.658 10.1022 13.5 10.5 13.5H19.5Z" fill="#92704C"/>
</g>
<defs>
<clipPath id="clip0_167_200">
<rect width="36" height="36" fill="white"/>
</clipPath>
</defs>
</svg>
