<svg width="45" height="45" viewBox="0 0 45 45" fill="none" xmlns="http://www.w3.org/2000/svg">
<path fill-rule="evenodd" clip-rule="evenodd" d="M31.5 28.5C31.8824 28.5004 32.2501 28.6468 32.5281 28.9093C32.8061 29.1717 32.9734 29.5304 32.9958 29.9121C33.0182 30.2938 32.894 30.6696 32.6487 30.9628C32.4033 31.2559 32.0552 31.4443 31.6755 31.4895L31.5 31.5H4.50005C4.11773 31.4996 3.75 31.3532 3.47199 31.0907C3.19399 30.8283 3.02669 30.4696 3.00429 30.0879C2.98188 29.7062 3.10606 29.3304 3.35144 29.0373C3.59683 28.7441 3.9449 28.5557 4.32455 28.5105L4.50005 28.5H31.5ZM28.5 6C29.2569 5.99976 29.9859 6.28561 30.5409 6.80025C31.0958 7.31488 31.4358 8.02027 31.4925 8.775L31.5 9V24C31.5003 24.7569 31.2144 25.4859 30.6998 26.0408C30.1852 26.5958 29.4798 26.9357 28.725 26.9925L28.5 27H7.50005C6.74318 27.0002 6.0142 26.7144 5.45923 26.1998C4.90425 25.6851 4.56431 24.9797 4.50755 24.225L4.50005 24V9C4.49981 8.24314 4.78566 7.51415 5.30029 6.95918C5.81493 6.40421 6.52031 6.06427 7.27505 6.0075L7.50005 6H28.5ZM28.5 9H7.50005V24H28.5V9Z" fill="#92704C"/>
</svg>
