<svg width="45" height="45" viewBox="0 0 45 45" fill="none" xmlns="http://www.w3.org/2000/svg">
<path d="M39.2756 15.5723C39.2567 14.1523 38.9909 12.7463 38.49 11.4173C38.0557 10.2964 37.3923 9.27834 36.5422 8.42828C35.6921 7.57821 34.6741 6.91481 33.5531 6.48047C32.2413 5.98801 30.8553 5.72173 29.4544 5.69297C27.6506 5.61234 27.0788 5.58984 22.5 5.58984C17.9213 5.58984 17.3344 5.58984 15.5438 5.69297C14.1434 5.72195 12.7582 5.98822 11.4469 6.48047C10.3257 6.91451 9.30755 7.5778 8.45745 8.42791C7.60734 9.27801 6.94405 10.2962 6.51001 11.4173C6.01657 12.7282 5.75087 14.1138 5.72438 15.5142C5.64376 17.3198 5.61938 17.8917 5.61938 22.4705C5.61938 27.0492 5.61938 27.6342 5.72438 29.4267C5.75251 30.8292 6.01688 32.213 6.51001 33.5273C6.94478 34.6481 7.60856 35.6659 8.45895 36.5157C9.30934 37.3654 10.3276 38.0284 11.4488 38.4623C12.7564 38.9746 14.142 39.2599 15.5456 39.3061C17.3513 39.3867 17.9231 39.4111 22.5019 39.4111C27.0806 39.4111 27.6675 39.4111 29.4581 39.3061C30.859 39.2785 32.2451 39.0128 33.5569 38.5205C34.6776 38.0856 35.6953 37.422 36.5453 36.572C37.3953 35.722 38.0589 34.7043 38.4938 33.5836C38.9869 32.2711 39.2513 30.8873 39.2794 29.483C39.36 27.6792 39.3844 27.1073 39.3844 22.5267C39.3806 17.948 39.3806 17.3667 39.2756 15.5723ZM22.4888 31.1292C17.7 31.1292 13.8206 27.2498 13.8206 22.4611C13.8206 17.6723 17.7 13.793 22.4888 13.793C24.7877 13.793 26.9925 14.7062 28.618 16.3318C30.2436 17.9574 31.1569 20.1622 31.1569 22.4611C31.1569 24.76 30.2436 26.9648 28.618 28.5904C26.9925 30.216 24.7877 31.1292 22.4888 31.1292ZM31.5019 15.4936C31.2364 15.4938 30.9734 15.4417 30.7281 15.3402C30.4828 15.2387 30.2598 15.0899 30.0721 14.9021C29.8844 14.7144 29.7355 14.4915 29.634 14.2461C29.5325 14.0008 29.4804 13.7378 29.4806 13.4723C29.4806 13.207 29.5329 12.9443 29.6344 12.6992C29.736 12.4541 29.8848 12.2314 30.0724 12.0438C30.26 11.8562 30.4827 11.7073 30.7278 11.6058C30.9729 11.5043 31.2356 11.452 31.5009 11.452C31.7663 11.452 32.029 11.5043 32.2741 11.6058C32.5192 11.7073 32.7419 11.8562 32.9295 12.0438C33.1171 12.2314 33.2659 12.4541 33.3675 12.6992C33.469 12.9443 33.5213 13.207 33.5213 13.4723C33.5213 14.5898 32.6175 15.4936 31.5019 15.4936Z" fill="#F5F5F5"/>
<path d="M22.4888 28.0913C25.5985 28.0913 28.1194 25.5704 28.1194 22.4607C28.1194 19.351 25.5985 16.8301 22.4888 16.8301C19.3791 16.8301 16.8582 19.351 16.8582 22.4607C16.8582 25.5704 19.3791 28.0913 22.4888 28.0913Z" fill="#F5F5F5"/>
</svg>
