<svg width="180" height="64" viewBox="0 0 180 64" fill="none" xmlns="http://www.w3.org/2000/svg">
<path d="M32.888 16.68C32.912 16.632 32.96 16.56 33.032 16.464C33.104 16.344 33.152 16.26 33.176 16.212C33.2 16.14 33.224 16.044 33.248 15.924C33.272 15.78 33.248 15.66 33.176 15.564C32.648 16.188 32.36 16.512 32.312 16.536C26.6 23.352 23.348 27.216 22.556 28.128C22.124 28.632 20.996 29.748 19.172 31.476C18.524 32.076 17.816 32.316 17.048 32.196C16.352 32.1 16.064 31.728 16.184 31.08C16.328 30.264 16.52 29.58 16.76 29.028C17.264 27.804 18.476 24.924 20.396 20.388C20.516 20.124 20.744 19.596 21.08 18.804C21.44 17.988 21.716 17.364 21.908 16.932C21.908 16.884 22.004 16.524 22.196 15.852C21.74 16.044 21.26 16.476 20.756 17.148C20.348 17.652 19.76 18.396 18.992 19.38C18.224 20.364 17.588 21.168 17.084 21.792C16.604 22.392 16.04 23.124 15.392 23.988C14.744 24.852 14.156 25.656 13.628 26.4C10.316 30.984 7.328 34.92 4.664 38.208C4.496 38.424 4.04 38.964 3.296 39.828C2.624 40.596 1.844 40.776 0.956 40.368C0.884 40.248 0.848 40.128 0.848 40.008C0.824 39.888 0.836 39.768 0.884 39.648C0.908 39.552 0.944 39.456 0.992 39.36C1.016 39.288 1.064 39.192 1.136 39.072C1.184 38.952 1.22 38.868 1.244 38.82C1.676 37.884 2.3 36.564 3.116 34.86C3.956 33.156 4.472 32.1 4.664 31.692C7.808 25.068 9.776 20.904 10.568 19.2C10.856 18.552 11.372 17.22 12.116 15.204C12.38 14.508 12.392 13.956 12.152 13.548C11.528 13.884 11.204 14.064 11.18 14.088C9.14 15.96 7.868 17.16 7.364 17.688C5.588 19.608 4.868 21.54 5.204 23.484C4.604 23.58 4.136 23.328 3.8 22.728C3.512 22.2 3.428 21.612 3.548 20.964C3.692 20.076 4.004 19.272 4.484 18.552C5.996 16.32 7.916 14.46 10.244 12.972C11.204 12.348 12.14 12.108 13.052 12.252C13.916 12.372 14.324 12.852 14.276 13.692C14.252 14.364 14.144 14.952 13.952 15.456C13.496 16.848 13.064 17.976 12.656 18.84C11.936 20.424 10.868 22.728 9.452 25.752C8.036 28.776 7.244 30.444 7.076 30.756C7.076 30.804 7.04 30.9 6.968 31.044C6.896 31.164 6.848 31.248 6.824 31.296C6.824 31.344 6.788 31.44 6.716 31.584C6.668 31.704 6.644 31.8 6.644 31.872C6.644 31.92 6.632 32.016 6.608 32.16C6.584 32.304 6.596 32.412 6.644 32.484C7.364 31.5 7.748 30.984 7.796 30.936C8.108 30.504 8.468 29.988 8.876 29.388C9.284 28.788 9.656 28.248 9.992 27.768C10.352 27.264 10.712 26.748 11.072 26.22C11.456 25.668 11.84 25.116 12.224 24.564C12.632 24.012 13.016 23.496 13.376 23.016C14.504 21.528 16.364 19.224 18.956 16.104C19.316 15.648 19.988 15 20.972 14.16C21.692 13.56 22.568 13.32 23.6 13.44C24.488 13.536 24.86 14.016 24.716 14.88C24.62 15.408 24.464 15.924 24.248 16.428C24.176 16.644 23.66 17.796 22.7 19.884C20.948 23.82 19.832 26.328 19.352 27.408C19.328 27.456 19.136 28.032 18.776 29.136C19.472 28.56 19.82 28.26 19.82 28.236C20.324 27.636 20.936 26.916 21.656 26.076C22.376 25.236 23 24.504 23.528 23.88C24.056 23.256 24.656 22.548 25.328 21.756C26.024 20.94 26.648 20.196 27.2 19.524C27.752 18.828 28.328 18.096 28.928 17.328C29.552 16.536 30.14 15.768 30.692 15.024C31.892 13.368 33.932 10.656 36.812 6.888C37.316 6.216 37.796 5.676 38.252 5.268C39.068 4.5 40.04 4.488 41.168 5.232C41.216 5.328 41.24 5.436 41.24 5.556C41.24 5.652 41.228 5.748 41.204 5.844C41.204 5.916 41.18 6.024 41.132 6.168C41.108 6.288 41.084 6.372 41.06 6.42C41.036 6.468 40.988 6.564 40.916 6.708C40.868 6.852 40.844 6.936 40.844 6.96C40.436 7.896 39.968 8.892 39.44 9.948C38.6 11.58 37.136 14.412 35.048 18.444C32.96 22.476 31.352 25.584 30.224 27.768C27.584 32.928 25.388 37.776 23.636 42.312C23.204 43.392 22.844 44.484 22.556 45.588C22.388 45.948 22.34 46.344 22.412 46.776C22.484 47.208 22.76 47.568 23.24 47.856C22.352 48.192 21.56 48.144 20.864 47.712C20.408 47.472 20.192 47.112 20.216 46.632C20.216 45.648 20.264 45 20.36 44.688C20.816 42.984 21.26 41.52 21.692 40.296C23.756 34.728 26.384 28.932 29.576 22.908C31.424 19.404 32.528 17.328 32.888 16.68ZM43.4447 32.304C43.4207 32.448 43.3127 33 43.1207 33.96C42.9287 34.92 42.8087 35.664 42.7607 36.192C42.6647 37.008 42.5927 38.424 42.5447 40.44C42.5447 41.256 42.8447 41.868 43.4447 42.276C42.6767 42.3 42.1247 42.192 41.7887 41.952C41.4767 41.736 41.2487 41.292 41.1047 40.62C40.7927 39.108 40.7087 37.632 40.8527 36.192C40.8767 35.928 40.9007 35.628 40.9247 35.292C40.9727 34.956 41.0087 34.656 41.0327 34.392C41.0807 34.128 41.1167 33.828 41.1407 33.492C41.1887 33.156 41.2247 32.856 41.2487 32.592C41.2487 32.568 41.2367 32.304 41.2127 31.8C40.5407 32.448 40.1927 32.784 40.1687 32.808C39.9287 33.072 39.6047 33.42 39.1967 33.852C38.8127 34.284 38.4527 34.692 38.1167 35.076C37.7807 35.436 37.4567 35.772 37.1447 36.084C36.5447 36.636 35.7287 37.284 34.6967 38.028C34.0247 38.532 33.3167 38.772 32.5727 38.748C32.0207 38.7 31.6247 38.568 31.3847 38.352C31.1447 38.112 31.0367 37.728 31.0607 37.2C31.1087 36.6 31.2047 36.06 31.3487 35.58C32.3807 32.676 33.9767 30.216 36.1367 28.2C36.6407 27.72 37.2767 27.312 38.0447 26.976C38.5007 26.76 39.0407 26.676 39.6647 26.724C39.8327 26.724 39.9767 26.736 40.0967 26.76C40.2407 26.784 40.3607 26.82 40.4567 26.868C40.5767 26.916 40.6727 26.976 40.7447 27.048C40.8167 27.12 40.8767 27.204 40.9247 27.3C40.9967 27.396 41.0327 27.504 41.0327 27.624C41.0567 27.744 41.0687 27.888 41.0687 28.056C41.0927 28.2 41.0927 28.368 41.0687 28.56C41.0687 28.56 41.0927 28.74 41.1407 29.1C41.4767 28.764 41.7407 28.512 41.9327 28.344C42.2447 28.056 42.6527 27.924 43.1567 27.948C43.8047 27.996 44.0927 28.308 44.0207 28.884C43.9247 29.628 43.7327 30.768 43.4447 32.304ZM33.0407 37.524C34.0727 37.044 35.2127 36.168 36.4607 34.896C37.7327 33.624 38.7407 32.328 39.4847 31.008C39.2447 30.72 39.1487 30.252 39.1967 29.604C39.2687 28.932 39.1967 28.44 38.9807 28.128C37.2047 29.208 35.5367 31.272 33.9767 34.32C33.9527 34.344 33.8927 34.452 33.7967 34.644C33.7007 34.812 33.6407 34.92 33.6167 34.968C33.6167 34.992 33.5687 35.1 33.4727 35.292C33.3767 35.46 33.3287 35.568 33.3287 35.616C33.3287 35.664 33.2927 35.784 33.2207 35.976C33.1487 36.144 33.1127 36.264 33.1127 36.336C33.1127 36.384 33.0887 36.516 33.0407 36.732C32.9927 36.924 32.9807 37.056 33.0047 37.128C33.0527 37.176 33.0647 37.308 33.0407 37.524ZM56.002 28.812C56.242 29.82 56.218 30.792 55.93 31.728C55.906 31.8 55.846 31.896 55.75 32.016C55.654 32.112 55.582 32.148 55.534 32.124C55.246 32.076 55.03 31.944 54.886 31.728C54.838 31.656 54.79 31.572 54.742 31.476C54.718 31.356 54.694 31.236 54.67 31.116C54.646 30.972 54.622 30.864 54.598 30.792C54.574 30.744 54.418 30.3 54.13 29.46C53.554 29.988 53.254 30.264 53.23 30.288C52.15 31.68 51.142 32.988 50.206 34.212C49.99 34.524 49.618 35.04 49.09 35.76C48.586 36.456 48.19 36.996 47.902 37.38C47.638 37.716 47.194 38.196 46.57 38.82C46.186 39.204 45.682 39.384 45.058 39.36C44.674 39.36 44.398 39.252 44.23 39.036C44.062 38.844 44.014 38.568 44.086 38.208C44.182 37.752 44.338 37.284 44.554 36.804C45.466 34.596 46.582 31.98 47.902 28.956C48.022 28.644 48.19 28.308 48.406 27.948C48.694 27.444 49.174 27.324 49.846 27.588C49.822 28.14 49.63 28.98 49.27 30.108C48.934 31.212 48.742 32.1 48.694 32.772C49.27 32.1 49.582 31.752 49.63 31.728C49.726 31.584 50.11 31.104 50.782 30.288C51.478 29.472 52.006 28.86 52.366 28.452C52.846 27.876 53.458 27.564 54.202 27.516C55.186 27.42 55.786 27.852 56.002 28.812ZM69.4353 29.604C69.4593 30.036 69.4713 30.264 69.4713 30.288C69.1593 30.96 68.8833 31.5 68.6433 31.908C67.2033 34.236 65.1393 36.228 62.4513 37.884C61.3713 38.58 60.2313 38.892 59.0313 38.82C57.2313 38.724 56.4393 37.8 56.6553 36.048C56.7033 35.808 56.7513 35.592 56.7993 35.4C57.2313 33.528 57.9873 31.656 59.0673 29.784C59.3073 29.328 59.5593 29.076 59.8233 29.028C60.1113 28.956 60.5553 29.028 61.1553 29.244C61.1793 29.412 61.1793 29.568 61.1553 29.712C61.1313 29.856 61.0713 30.06 60.9753 30.324C60.8793 30.588 60.8193 30.744 60.7953 30.792C60.0273 33.24 59.5593 34.752 59.3913 35.328C59.2473 35.784 59.1873 36.216 59.2113 36.624C59.2113 36.672 59.3193 37.008 59.5353 37.632C60.1833 37.608 60.9753 37.308 61.9113 36.732C64.3353 35.22 66.4473 33.252 68.2473 30.828C68.2713 30.804 68.3553 30.672 68.4993 30.432C68.6433 30.192 68.7753 30.012 68.8953 29.892C69.0393 29.772 69.2193 29.676 69.4353 29.604ZM61.8753 25.86C61.5633 26.1 61.2033 26.196 60.7953 26.148C60.3873 26.076 60.0753 25.884 59.8593 25.572C59.6913 25.308 59.6553 25.008 59.7513 24.672C59.8473 24.312 60.0513 24.048 60.3633 23.88C61.1073 23.424 62.0073 23.34 63.0633 23.628C62.6073 24.66 62.3433 25.236 62.2713 25.356C62.1993 25.524 62.0673 25.692 61.8753 25.86ZM77.5111 32.304C77.4871 32.448 77.3791 33 77.1871 33.96C76.9951 34.92 76.8751 35.664 76.8271 36.192C76.7311 37.008 76.6591 38.424 76.6111 40.44C76.6111 41.256 76.9111 41.868 77.5111 42.276C76.7431 42.3 76.1911 42.192 75.8551 41.952C75.5431 41.736 75.3151 41.292 75.1711 40.62C74.8591 39.108 74.7751 37.632 74.9191 36.192C74.9431 35.928 74.9671 35.628 74.9911 35.292C75.0391 34.956 75.0751 34.656 75.0991 34.392C75.1471 34.128 75.1831 33.828 75.2071 33.492C75.2551 33.156 75.2911 32.856 75.3151 32.592C75.3151 32.568 75.3031 32.304 75.2791 31.8C74.6071 32.448 74.2591 32.784 74.2351 32.808C73.9951 33.072 73.6711 33.42 73.2631 33.852C72.8791 34.284 72.5191 34.692 72.1831 35.076C71.8471 35.436 71.5231 35.772 71.2111 36.084C70.6111 36.636 69.7951 37.284 68.7631 38.028C68.0911 38.532 67.3831 38.772 66.6391 38.748C66.0871 38.7 65.6911 38.568 65.4511 38.352C65.2111 38.112 65.1031 37.728 65.1271 37.2C65.1751 36.6 65.2711 36.06 65.4151 35.58C66.4471 32.676 68.0431 30.216 70.2031 28.2C70.7071 27.72 71.3431 27.312 72.1111 26.976C72.5671 26.76 73.1071 26.676 73.7311 26.724C73.8991 26.724 74.0431 26.736 74.1631 26.76C74.3071 26.784 74.4271 26.82 74.5231 26.868C74.6431 26.916 74.7391 26.976 74.8111 27.048C74.8831 27.12 74.9431 27.204 74.9911 27.3C75.0631 27.396 75.0991 27.504 75.0991 27.624C75.1231 27.744 75.1351 27.888 75.1351 28.056C75.1591 28.2 75.1591 28.368 75.1351 28.56C75.1351 28.56 75.1591 28.74 75.2071 29.1C75.5431 28.764 75.8071 28.512 75.9991 28.344C76.3111 28.056 76.7191 27.924 77.2231 27.948C77.8711 27.996 78.1591 28.308 78.0871 28.884C77.9911 29.628 77.7991 30.768 77.5111 32.304ZM67.1071 37.524C68.1391 37.044 69.2791 36.168 70.5271 34.896C71.7991 33.624 72.8071 32.328 73.5511 31.008C73.3111 30.72 73.2151 30.252 73.2631 29.604C73.3351 28.932 73.2631 28.44 73.0471 28.128C71.2711 29.208 69.6031 31.272 68.0431 34.32C68.0191 34.344 67.9591 34.452 67.8631 34.644C67.7671 34.812 67.7071 34.92 67.6831 34.968C67.6831 34.992 67.6351 35.1 67.5391 35.292C67.4431 35.46 67.3951 35.568 67.3951 35.616C67.3951 35.664 67.3591 35.784 67.2871 35.976C67.2151 36.144 67.1791 36.264 67.1791 36.336C67.1791 36.384 67.1551 36.516 67.1071 36.732C67.0591 36.924 67.0471 37.056 67.0711 37.128C67.1191 37.176 67.1311 37.308 67.1071 37.524ZM91.1678 34.968C91.3358 34.872 91.6718 34.632 92.1758 34.248C92.7038 33.84 93.1718 33.54 93.5798 33.348C93.9878 33.132 94.4318 33 94.9118 32.952C94.6718 33.312 94.5518 33.492 94.5518 33.492C91.9118 35.7 90.1358 37.176 89.2238 37.92C88.7678 38.28 88.2518 38.58 87.6758 38.82C87.3398 38.94 86.9198 38.976 86.4158 38.928C85.7918 38.856 85.4918 38.52 85.5158 37.92C85.5398 37.2 85.6238 36.612 85.7678 36.156C85.9598 35.532 86.2478 34.656 86.6318 33.528C87.0158 32.4 87.2798 31.608 87.4238 31.152C87.4478 31.104 87.4958 31.008 87.5678 30.864C87.6398 30.696 87.6878 30.564 87.7118 30.468C87.7358 30.372 87.7478 30.252 87.7478 30.108C87.7478 29.964 87.7238 29.808 87.6758 29.64C86.4758 30.624 85.8398 31.152 85.7678 31.224C85.4078 31.56 84.9038 32.052 84.2558 32.7C83.6318 33.324 83.1998 33.756 82.9598 33.996C82.2638 34.668 81.6878 35.184 81.2318 35.544C80.8478 35.832 80.4638 36.024 80.0798 36.12C79.4798 36.24 79.0358 36.168 78.7478 35.904C78.4838 35.616 78.4358 35.172 78.6038 34.572C78.6758 34.284 79.1558 32.604 80.0438 29.532C80.4758 29.364 80.6918 29.28 80.6918 29.28C81.2438 29.28 81.6038 29.388 81.7718 29.604C81.9638 29.796 81.9998 30.156 81.8798 30.684C81.8318 30.804 81.5198 31.824 80.9438 33.744C81.4958 33.384 81.7838 33.192 81.8078 33.168C81.9278 33.048 82.3238 32.652 82.9958 31.98C83.6918 31.284 84.2318 30.768 84.6158 30.432C85.0478 30.024 85.9118 29.34 87.2078 28.38C87.6638 28.044 88.2278 27.888 88.8998 27.912C89.4278 27.936 89.7878 28.068 89.9798 28.308C90.1958 28.524 90.2678 28.872 90.1958 29.352C90.1238 29.808 89.9678 30.384 89.7278 31.08C89.5358 31.608 89.2358 32.388 88.8278 33.42C88.4438 34.428 88.1678 35.184 87.9998 35.688C87.9758 35.736 87.8078 36.324 87.4958 37.452C88.0958 37.164 88.8038 36.708 89.6198 36.084C90.4598 35.46 90.9758 35.088 91.1678 34.968ZM104.933 32.304C104.909 32.448 104.801 33 104.609 33.96C104.417 34.92 104.297 35.664 104.249 36.192C104.153 37.008 104.081 38.424 104.033 40.44C104.033 41.256 104.333 41.868 104.933 42.276C104.165 42.3 103.613 42.192 103.277 41.952C102.965 41.736 102.737 41.292 102.593 40.62C102.281 39.108 102.197 37.632 102.341 36.192C102.365 35.928 102.389 35.628 102.413 35.292C102.461 34.956 102.497 34.656 102.521 34.392C102.569 34.128 102.605 33.828 102.629 33.492C102.677 33.156 102.713 32.856 102.737 32.592C102.737 32.568 102.725 32.304 102.701 31.8C102.029 32.448 101.681 32.784 101.657 32.808C101.417 33.072 101.093 33.42 100.685 33.852C100.301 34.284 99.941 34.692 99.605 35.076C99.269 35.436 98.945 35.772 98.633 36.084C98.033 36.636 97.217 37.284 96.185 38.028C95.513 38.532 94.805 38.772 94.061 38.748C93.509 38.7 93.113 38.568 92.873 38.352C92.633 38.112 92.525 37.728 92.549 37.2C92.597 36.6 92.693 36.06 92.837 35.58C93.869 32.676 95.465 30.216 97.625 28.2C98.129 27.72 98.765 27.312 99.533 26.976C99.989 26.76 100.529 26.676 101.153 26.724C101.321 26.724 101.465 26.736 101.585 26.76C101.729 26.784 101.849 26.82 101.945 26.868C102.065 26.916 102.161 26.976 102.233 27.048C102.305 27.12 102.365 27.204 102.413 27.3C102.485 27.396 102.521 27.504 102.521 27.624C102.545 27.744 102.557 27.888 102.557 28.056C102.581 28.2 102.581 28.368 102.557 28.56C102.557 28.56 102.581 28.74 102.629 29.1C102.965 28.764 103.229 28.512 103.421 28.344C103.733 28.056 104.141 27.924 104.645 27.948C105.293 27.996 105.581 28.308 105.509 28.884C105.413 29.628 105.221 30.768 104.933 32.304ZM94.529 37.524C95.561 37.044 96.701 36.168 97.949 34.896C99.221 33.624 100.229 32.328 100.973 31.008C100.733 30.72 100.637 30.252 100.685 29.604C100.757 28.932 100.685 28.44 100.469 28.128C98.693 29.208 97.025 31.272 95.465 34.32C95.441 34.344 95.381 34.452 95.285 34.644C95.189 34.812 95.129 34.92 95.105 34.968C95.105 34.992 95.057 35.1 94.961 35.292C94.865 35.46 94.817 35.568 94.817 35.616C94.817 35.664 94.781 35.784 94.709 35.976C94.637 36.144 94.601 36.264 94.601 36.336C94.601 36.384 94.577 36.516 94.529 36.732C94.481 36.924 94.469 37.056 94.493 37.128C94.541 37.176 94.553 37.308 94.529 37.524ZM136.263 20.244C136.311 20.196 136.335 20.136 136.335 20.064C136.359 19.968 136.371 19.884 136.371 19.812C136.371 19.716 136.371 19.596 136.371 19.452C136.395 19.308 136.419 19.164 136.443 19.02C133.851 19.572 132.471 19.872 132.303 19.92C132.087 19.968 131.835 20.028 131.547 20.1C131.283 20.148 131.031 20.196 130.791 20.244C130.575 20.292 130.335 20.352 130.071 20.424C129.807 20.496 129.555 20.556 129.315 20.604C129.075 20.652 128.823 20.7 128.559 20.748C128.295 20.796 128.043 20.844 127.803 20.892C127.059 21.012 126.027 21.072 124.707 21.072C123.747 21.072 123.135 20.784 122.871 20.208C122.823 20.088 122.787 19.98 122.763 19.884C122.739 19.788 122.739 19.692 122.763 19.596C122.787 19.476 122.811 19.38 122.835 19.308C122.859 19.236 122.907 19.152 122.979 19.056C123.075 18.936 123.135 18.864 123.159 18.84C123.207 18.792 123.291 18.708 123.411 18.588C123.531 18.444 123.591 18.36 123.591 18.336C124.071 17.856 124.635 17.34 125.283 16.788C128.931 13.716 132.687 11.148 136.551 9.084C137.151 8.748 138.603 8.112 140.907 7.176C141.699 6.84 142.671 6.756 143.823 6.924C144.255 6.972 144.615 7.104 144.903 7.32C145.191 7.536 145.371 7.812 145.443 8.148C145.539 8.46 145.527 8.82 145.407 9.228C144.927 10.884 144.015 12.144 142.671 13.008C142.671 13.008 142.491 13.008 142.131 13.008C142.203 12.72 142.311 12.324 142.455 11.82C142.623 11.292 142.743 10.884 142.815 10.596C142.887 10.284 142.935 9.864 142.959 9.336C143.007 8.808 142.935 8.376 142.743 8.04C142.119 8.04 141.363 8.244 140.475 8.652C138.819 9.42 137.559 10.08 136.695 10.632C133.527 12.552 130.371 14.928 127.227 17.76C126.459 18.432 125.955 19.056 125.715 19.632C126.363 19.608 126.699 19.596 126.723 19.596C126.915 19.548 127.923 19.32 129.747 18.912C131.595 18.48 132.999 18.168 133.959 17.976C134.247 17.904 134.547 17.856 134.859 17.832C135.171 17.808 135.543 17.796 135.975 17.796C136.407 17.796 136.719 17.784 136.911 17.76C137.055 17.76 137.211 17.784 137.379 17.832C138.363 18.024 138.987 18.384 139.251 18.912C139.539 19.416 139.407 20.1 138.855 20.964C137.871 22.356 136.743 23.772 135.471 25.212C135.087 25.62 134.667 26.052 134.211 26.508C133.779 26.964 133.275 27.48 132.699 28.056C132.123 28.608 131.703 29.028 131.439 29.316C126.015 34.788 122.811 38.028 121.827 39.036C121.059 39.804 120.171 40.836 119.163 42.132C118.539 42.924 118.323 43.656 118.515 44.328C119.115 44.328 119.427 44.328 119.451 44.328C121.035 43.848 122.175 43.476 122.871 43.212C127.407 41.484 133.959 38.964 142.527 35.652C143.031 35.46 143.355 35.364 143.499 35.364C143.643 35.364 143.979 35.436 144.507 35.58C144.123 35.94 143.931 36.132 143.931 36.156C142.683 36.828 141.807 37.284 141.303 37.524C136.191 39.852 130.047 42.348 122.871 45.012C121.311 45.588 119.919 45.888 118.695 45.912C117.639 45.936 116.835 45.804 116.283 45.516C115.371 45.084 115.071 44.412 115.383 43.5C115.623 42.828 115.935 42.264 116.319 41.808C117.087 40.824 117.891 39.924 118.731 39.108C120.267 37.596 123.723 34.224 129.099 28.992C131.787 26.352 133.755 24.144 135.003 22.368C135.435 21.768 135.855 21.06 136.263 20.244ZM164.095 35.724C164.935 35.148 165.703 34.788 166.398 34.644C166.375 34.788 166.327 34.908 166.255 35.004C166.207 35.1 166.159 35.172 166.111 35.22C166.063 35.268 165.979 35.328 165.859 35.4C165.763 35.472 165.703 35.52 165.679 35.544C160.735 39.504 157.819 41.832 156.931 42.528C156.283 43.032 155.755 43.716 155.347 44.58C153.067 49.236 150.139 53.604 146.562 57.684C144.93 59.532 143.37 60.984 141.882 62.04C141.45 62.352 140.742 62.772 139.758 63.3C139.254 63.564 138.618 63.624 137.85 63.48C137.586 63.456 137.37 63.372 137.202 63.228C137.01 63.108 136.89 62.94 136.842 62.724C136.77 62.532 136.77 62.316 136.842 62.076C137.106 61.26 137.43 60.504 137.814 59.808C139.038 57.744 140.454 55.872 142.062 54.192C143.982 52.224 145.914 50.34 147.859 48.54C148.963 47.508 150.823 45.9 153.439 43.716C154.063 43.212 154.495 42.588 154.735 41.844C155.599 39.204 156.175 36.48 156.463 33.672C156.511 33.24 156.511 32.64 156.463 31.872C156.463 31.824 156.367 31.536 156.175 31.008C155.623 31.416 155.335 31.632 155.311 31.656C154.447 32.688 153.655 33.672 152.935 34.608C152.719 34.872 152.311 35.4 151.711 36.192C151.111 36.984 150.643 37.584 150.307 37.992C150.019 38.328 149.467 38.856 148.651 39.576C148.387 39.792 148.099 39.948 147.787 40.044C147.115 40.236 146.598 40.188 146.238 39.9C145.854 39.612 145.698 39.108 145.77 38.388C145.794 37.932 145.89 37.392 146.058 36.768C146.587 34.872 147.547 32.844 148.938 30.684C149.323 30.084 149.779 29.916 150.307 30.18C150.307 30.3 150.283 30.432 150.235 30.576C150.187 30.696 150.127 30.828 150.055 30.972C150.007 31.092 149.959 31.2 149.911 31.296C149.863 31.392 149.791 31.512 149.695 31.656C149.623 31.776 149.563 31.884 149.515 31.98C148.627 33.612 147.931 35.328 147.427 37.128C147.259 37.704 147.139 38.304 147.067 38.928C147.067 38.952 147.151 39.228 147.319 39.756C147.799 39.468 148.051 39.312 148.075 39.288C149.035 38.208 149.671 37.452 149.983 37.02C150.295 36.588 150.727 35.952 151.279 35.112C151.831 34.248 152.251 33.612 152.539 33.204C153.019 32.508 153.679 31.692 154.519 30.756C154.783 30.444 155.119 30.18 155.527 29.964C156.223 29.628 156.835 29.604 157.363 29.892C157.915 30.156 158.263 30.648 158.407 31.368C158.623 32.616 158.587 33.984 158.299 35.472C158.275 35.568 157.963 36.96 157.363 39.648C157.339 39.672 157.291 39.9 157.219 40.332C157.435 40.308 157.615 40.248 157.759 40.152C157.927 40.08 158.107 39.96 158.299 39.792C158.515 39.648 158.647 39.552 158.695 39.504C159.127 39.192 159.691 38.796 160.387 38.316C161.083 37.812 161.731 37.344 162.331 36.912C162.955 36.48 163.543 36.084 164.095 35.724ZM139.11 62.4C140.766 61.656 142.602 60.276 144.618 58.26C146.611 56.244 148.303 54.18 149.695 52.068C151.111 49.956 151.987 48.24 152.323 46.92C152.227 46.92 152.179 46.92 152.179 46.92C151.963 47.016 151.819 47.1 151.747 47.172C146.899 51.636 143.166 55.704 140.55 59.376C140.238 59.832 139.794 60.576 139.218 61.608C139.194 61.632 139.158 61.896 139.11 62.4ZM178.917 29.604C179.325 30.444 179.121 31.308 178.305 32.196C177.489 33.084 176.685 33.816 175.893 34.392C174.261 35.568 172.329 36.588 170.097 37.452C169.833 37.572 169.557 37.668 169.269 37.74C168.981 37.812 168.621 37.896 168.189 37.992C167.757 38.088 167.409 38.172 167.145 38.244C167.073 38.388 166.917 38.652 166.677 39.036C166.461 39.444 166.293 39.768 166.173 40.008C165.309 41.52 164.841 42.324 164.769 42.42C164.361 43.068 163.953 43.44 163.545 43.536C163.137 43.656 162.525 43.56 161.709 43.248C161.661 43.152 161.637 43.044 161.637 42.924C161.613 42.828 161.601 42.732 161.601 42.636C161.577 42.564 161.589 42.468 161.637 42.348C161.661 42.228 161.685 42.132 161.709 42.06C161.709 42.012 161.733 41.916 161.781 41.772C161.829 41.628 161.865 41.532 161.889 41.484C163.497 36.444 164.613 33.012 165.237 31.188C168.309 21.804 170.865 14.04 172.905 7.896C173.193 7.008 173.877 5.1 174.957 2.172C175.149 1.668 175.365 1.224 175.605 0.839998C175.893 0.359998 176.349 0.275999 176.973 0.587999C176.613 2.028 175.593 5.652 173.913 11.46C173.673 12.3 172.593 15.936 170.673 22.368C170.433 23.136 170.073 24.264 169.593 25.752C169.137 27.216 168.729 28.56 168.369 29.784C168.009 30.984 167.697 32.136 167.433 33.24C168.081 32.664 168.429 32.352 168.477 32.304C170.085 30.792 171.765 29.676 173.517 28.956C174.645 28.5 175.665 28.308 176.577 28.38C177.801 28.5 178.581 28.908 178.917 29.604ZM176.145 30.756C176.169 30.732 176.181 30.36 176.181 29.64C173.757 30.648 171.681 32.136 169.953 34.104C169.641 34.44 169.413 34.74 169.269 35.004C169.029 35.388 169.149 35.664 169.629 35.832C172.005 34.608 173.733 33.528 174.813 32.592C175.557 31.968 176.001 31.356 176.145 30.756Z" fill="#F5F5F5"/>
</svg>
