<svg width="36" height="36" viewBox="0 0 36 36" fill="none" xmlns="http://www.w3.org/2000/svg">
<g clip-path="url(#clip0_167_204)">
<path fill-rule="evenodd" clip-rule="evenodd" d="M18 6C19.008 6 19.8525 6.66 20.3985 7.2075C21.0195 7.83 21.618 8.6745 22.1385 9.6525C22.8105 10.92 23.3925 12.4875 23.7195 14.2395C24.6256 13.7677 25.5802 13.3955 26.5665 13.1295C27.306 12.936 28.026 12.8295 28.665 12.8445C29.22 12.858 30.066 12.9675 30.675 13.5765C31.3065 14.208 31.443 15.147 31.3995 16.002C31.3575 16.794 31.155 17.709 30.822 18.6555C30.4079 19.8137 29.8602 20.9197 29.19 21.951C29.8318 22.1926 30.4495 22.494 31.035 22.851C31.965 23.43 33 24.3045 33 25.5C33 26.0325 32.7855 26.463 32.5965 26.745C31.98 27.675 30.918 28.2825 29.931 28.737C28.389 29.4465 26.301 30 24 30C21.675 30 19.56 29.436 18 28.7055C16.44 29.436 14.325 30 12 30C9.699 30 7.611 29.4465 6.069 28.737C5.082 28.2825 4.02 27.675 3.4035 26.7465C3.14906 26.3799 3.00868 25.9462 3 25.5C3 24.3045 4.035 23.43 4.965 22.8525C5.55047 22.495 6.16817 22.1932 6.81 21.951C6.13979 20.9196 5.59209 19.8137 5.178 18.6555C4.845 17.709 4.6425 16.7955 4.6005 16.002C4.5555 15.147 4.692 14.208 5.325 13.5765C5.934 12.9675 6.78 12.8565 7.335 12.8445C7.974 12.8295 8.694 12.936 9.4335 13.1295C10.4198 13.3955 11.3744 13.7677 12.2805 14.2395C12.5749 12.6398 13.1084 11.0935 13.863 9.6525C14.382 8.6745 14.9805 7.83 15.603 7.2075C16.1475 6.66 16.9905 6 18 6ZM27.2175 24.4515C26.2871 25.4228 25.243 26.2784 24.108 27C25.905 26.982 27.525 26.5425 28.6755 26.013C29.058 25.836 29.3685 25.6605 29.6055 25.5C28.8855 25.014 28.05 24.69 27.2175 24.4515ZM8.7825 24.4515C7.95 24.6915 7.116 25.014 6.3945 25.5C6.6315 25.6605 6.942 25.836 7.3245 26.013C8.475 26.5425 10.095 26.982 11.892 27C10.7568 26.278 9.71283 25.4218 8.7825 24.45V24.4515ZM18.2745 9.3255C18.0195 9.0705 17.9805 9.0705 17.7255 9.3255C17.3625 9.69 16.9305 10.2735 16.512 11.0595C15.5206 12.9726 15.0021 15.0953 15 17.25C15.0022 19.4047 15.5207 21.5274 16.512 23.4405C16.9305 24.2265 17.364 24.8115 17.727 25.1745C17.9805 25.4295 18.0195 25.4295 18.2745 25.1745C18.6375 24.8115 19.0695 24.2265 19.488 23.4405C20.4793 21.5274 20.9978 19.4047 21 17.25C20.9979 15.0953 20.4794 12.9726 19.488 11.0595C19.0695 10.2735 18.6375 9.69 18.2745 9.3255ZM7.5975 15.8475C7.62 16.2795 7.7415 16.9035 8.007 17.6595C8.538 19.1685 9.5715 21.0045 11.1585 22.5915C11.9364 23.3673 12.804 24.0476 13.743 24.618C12.6429 22.4165 12.0485 19.9971 12.003 17.5365C10.803 16.7715 9.624 16.2795 8.6745 16.032C8.32243 15.9353 7.96169 15.8735 7.5975 15.8475ZM28.4025 15.8475C28.1325 15.8625 27.7695 15.9165 27.3255 16.032C26.376 16.2795 25.197 16.7715 23.997 17.5365C23.9514 19.9966 23.3569 22.4155 22.257 24.6165C23.1959 24.0466 24.0635 23.3668 24.8415 22.5915C26.4285 21.0045 27.462 19.1685 27.9915 17.6595C28.2585 16.9035 28.38 16.2795 28.4025 15.8475Z" fill="#92704C"/>
</g>
<defs>
<clipPath id="clip0_167_204">
<rect width="36" height="36" fill="white"/>
</clipPath>
</defs>
</svg>
