<svg width="45" height="45" viewBox="0 0 45 45" fill="none" xmlns="http://www.w3.org/2000/svg">
<path d="M36.731 12.5438C34.862 12.1327 33.1711 11.1402 31.9012 9.70855C30.6312 8.2769 29.8474 6.47976 29.6623 4.575V3.75H23.1935V29.3813C23.1948 30.5186 22.8383 31.6274 22.1744 32.5508C21.5104 33.4742 20.5728 34.1653 19.4943 34.5262C18.4158 34.8871 17.251 34.8995 16.1651 34.5616C15.0791 34.2238 14.127 33.5528 13.4435 32.6438C12.8312 31.8391 12.4563 30.8791 12.3612 29.8725C12.266 28.8659 12.4544 27.8527 12.905 26.9475C13.3556 26.0423 14.0505 25.2813 14.9111 24.7505C15.7717 24.2197 16.7637 23.9402 17.7748 23.9438C18.334 23.9406 18.8904 24.0227 19.4248 24.1875V17.625C18.8029 17.548 18.1762 17.5167 17.5498 17.5313C15.2422 17.5929 13.0028 18.3261 11.1056 19.6411C9.20838 20.9561 7.73583 22.7958 6.86824 24.935C6.00065 27.0741 5.77568 29.4198 6.22088 31.6848C6.66607 33.9498 7.76212 36.0359 9.37478 37.6875C11.0276 39.3679 13.1426 40.519 15.4511 40.9946C17.7596 41.4702 20.1574 41.2488 22.3398 40.3586C24.5222 39.4684 26.3907 37.9494 27.7078 35.9949C29.025 34.0403 29.7314 31.7382 29.7373 29.3813V16.2563C32.3463 18.1199 35.4748 19.1168 38.681 19.1063V12.7313C38.0512 12.7338 37.4229 12.671 36.806 12.5438H36.731Z" fill="#92704C"/>
</svg>
