<svg width="45" height="45" viewBox="0 0 45 45" fill="none" xmlns="http://www.w3.org/2000/svg">
<path d="M39.2754 15.5719C39.2565 14.1518 38.9906 12.7458 38.4898 11.4169C38.0554 10.2959 37.392 9.27788 36.542 8.42782C35.6919 7.57775 34.6739 6.91436 33.5529 6.48001C32.241 5.98756 30.8551 5.72128 29.4541 5.69251C27.6504 5.61189 27.0785 5.58939 22.4998 5.58939C17.921 5.58939 17.3341 5.58939 15.5435 5.69251C14.1432 5.72149 12.7579 5.98776 11.4466 6.48001C10.3255 6.91405 9.30731 7.57734 8.4572 8.42745C7.6071 9.27755 6.94381 10.2957 6.50977 11.4169C6.01632 12.7278 5.75062 14.1133 5.72414 15.5138C5.64352 17.3194 5.61914 17.8913 5.61914 22.47C5.61914 27.0488 5.61914 27.6338 5.72414 29.4263C5.75227 30.8288 6.01664 32.2125 6.50977 33.5269C6.94454 34.6477 7.60832 35.6655 8.45871 36.5152C9.3091 37.365 10.3274 38.028 11.4485 38.4619C12.7562 38.9741 14.1417 39.2595 15.5454 39.3056C17.351 39.3863 17.9229 39.4106 22.5016 39.4106C27.0804 39.4106 27.6673 39.4106 29.4579 39.3056C30.8588 39.278 32.2448 39.0124 33.5566 38.52C34.6773 38.0852 35.6951 37.4216 36.5451 36.5716C37.3951 35.7216 38.0587 34.7038 38.4935 33.5831C38.9866 32.2706 39.251 30.8869 39.2791 29.4825C39.3598 27.6788 39.3841 27.1069 39.3841 22.5263C39.3804 17.9475 39.3804 17.3663 39.2754 15.5719ZM22.4885 31.1288C17.6998 31.1288 13.8204 27.2494 13.8204 22.4606C13.8204 17.6719 17.6998 13.7925 22.4885 13.7925C24.7874 13.7925 26.9922 14.7058 28.6178 16.3313C30.2434 17.9569 31.1566 20.1617 31.1566 22.4606C31.1566 24.7596 30.2434 26.9643 28.6178 28.5899C26.9922 30.2155 24.7874 31.1288 22.4885 31.1288ZM31.5016 15.4931C31.2361 15.4934 30.9732 15.4413 30.7278 15.3398C30.4825 15.2383 30.2596 15.0894 30.0719 14.9017C29.8841 14.7139 29.7352 14.491 29.6337 14.2457C29.5323 14.0003 29.4801 13.7374 29.4804 13.4719C29.4804 13.2066 29.5326 12.9439 29.6342 12.6987C29.7357 12.4536 29.8845 12.2309 30.0721 12.0433C30.2597 11.8557 30.4824 11.7069 30.7276 11.6054C30.9727 11.5038 31.2354 11.4516 31.5007 11.4516C31.766 11.4516 32.0287 11.5038 32.2738 11.6054C32.519 11.7069 32.7417 11.8557 32.9293 12.0433C33.1169 12.2309 33.2657 12.4536 33.3672 12.6987C33.4688 12.9439 33.521 13.2066 33.521 13.4719C33.521 14.5894 32.6173 15.4931 31.5016 15.4931Z" fill="#92704C"/>
<path d="M22.488 28.0912C25.5978 28.0912 28.1187 25.5703 28.1187 22.4606C28.1187 19.3509 25.5978 16.83 22.488 16.83C19.3783 16.83 16.8574 19.3509 16.8574 22.4606C16.8574 25.5703 19.3783 28.0912 22.488 28.0912Z" fill="#92704C"/>
</svg>
