<svg width="36" height="36" viewBox="0 0 36 36" fill="none" xmlns="http://www.w3.org/2000/svg">
<g clip-path="url(#clip0_167_208)">
<path fill-rule="evenodd" clip-rule="evenodd" d="M20.844 4.54506C21.3749 4.01413 22.0855 3.70156 22.8356 3.66907C23.5857 3.63658 24.3207 3.88653 24.8955 4.36956L25.086 4.54506L31.4505 10.9096C31.981 11.4403 32.2933 12.1507 32.3258 12.9004C32.3583 13.6502 32.1086 14.3849 31.626 14.9596L31.4505 15.1516L15.9795 30.6226C15.4815 31.1206 14.8241 31.4275 14.1225 31.4896L13.8585 31.5001H6.00902C5.63578 31.5001 5.27568 31.3623 4.99776 31.1132C4.71984 30.864 4.54367 30.5211 4.50302 30.1501L4.49402 29.9851V22.1356C4.49419 21.4312 4.74217 20.7494 5.19452 20.2096L5.37452 20.0146L20.844 4.54506ZM18.255 11.3761L7.49402 22.1371V28.5001H13.86L24.621 17.7391L18.2565 11.3746L18.255 11.3761ZM22.965 6.66606L20.376 9.25506L26.7405 15.6196L29.3295 13.0306L22.965 6.66606Z" fill="#92704C"/>
</g>
<defs>
<clipPath id="clip0_167_208">
<rect width="36" height="36" fill="white"/>
</clipPath>
</defs>
</svg>
