<svg width="45" height="45" viewBox="0 0 45 45" fill="none" xmlns="http://www.w3.org/2000/svg">
<path d="M36.7313 12.5438C34.8622 12.1327 33.1714 11.1402 31.9014 9.70855C30.6315 8.2769 29.8477 6.47976 29.6625 4.575V3.75H23.1938V29.3813C23.1951 30.5186 22.8385 31.6274 22.1746 32.5508C21.5107 33.4742 20.573 34.1653 19.4945 34.5262C18.416 34.8871 17.2513 34.8995 16.1653 34.5616C15.0793 34.2238 14.1272 33.5528 13.4438 32.6438C12.8315 31.8391 12.4566 30.8791 12.3614 29.8725C12.2662 28.8659 12.4546 27.8527 12.9052 26.9475C13.3559 26.0423 14.0508 25.2813 14.9114 24.7505C15.772 24.2197 16.7639 23.9402 17.775 23.9438C18.3342 23.9406 18.8906 24.0227 19.425 24.1875V17.625C18.8032 17.548 18.1765 17.5167 17.55 17.5313C15.2425 17.5929 13.003 18.3261 11.1058 19.6411C9.20862 20.9561 7.73607 22.7958 6.86848 24.935C6.00089 27.0741 5.77592 29.4198 6.22112 31.6848C6.66632 33.9498 7.76236 36.0359 9.37503 37.6875C11.0278 39.3679 13.1428 40.519 15.4513 40.9946C17.7598 41.4702 20.1576 41.2488 22.34 40.3586C24.5224 39.4684 26.3909 37.9494 27.7081 35.9949C29.0253 34.0403 29.7317 31.7382 29.7375 29.3813V16.2563C32.3465 18.1199 35.475 19.1168 38.6813 19.1062V12.7313C38.0515 12.7338 37.4231 12.671 36.8063 12.5438H36.7313Z" fill="#F5F5F5"/>
</svg>
